<mxfile host="65bd71144e">
    <diagram id="v8jKz6DOHK7YCzN7xReD" name="Page-1">
        <mxGraphModel dx="1728" dy="832" grid="1" gridSize="10" guides="1" tooltips="1" connect="1" arrows="1" fold="1" page="1" pageScale="1" pageWidth="850" pageHeight="1100" math="0" shadow="0">
            <root>
                <mxCell id="0"/>
                <mxCell id="1" parent="0"/>
                <mxCell id="2" value="&lt;table border=&quot;1&quot; width=&quot;100%&quot; height=&quot;100%&quot; cellpadding=&quot;4&quot; style=&quot;width:100%;height:100%;border-collapse:collapse;&quot;&gt;&lt;tbody&gt;&lt;tr&gt;&lt;th align=&quot;center&quot;&gt;&lt;b&gt;Admin&lt;/b&gt;&lt;/th&gt;&lt;/tr&gt;&lt;tr&gt;&lt;td align=&quot;center&quot;&gt;Role&lt;br&gt;Name&lt;br&gt;Email&lt;br&gt;password&lt;/td&gt;&lt;/tr&gt;&lt;tr&gt;&lt;td align=&quot;center&quot;&gt;+MangeCourse&lt;br&gt;+MangeSessions&lt;br&gt;+MangeQuestions&lt;br&gt;+DeleteStudentFromTheCourse&lt;br&gt;+DeleteAllStudentsFromTheCourse&lt;/td&gt;&lt;/tr&gt;&lt;/tbody&gt;&lt;/table&gt;" style="text;html=1;whiteSpace=wrap;strokeColor=#006EAF;fillColor=#1ba1e2;overflow=fill;fontColor=#ffffff;" parent="1" vertex="1">
                    <mxGeometry x="-620" y="160" width="210" height="210" as="geometry"/>
                </mxCell>
                <mxCell id="4" value="&lt;table border=&quot;1&quot; width=&quot;100%&quot; height=&quot;100%&quot; cellpadding=&quot;4&quot; style=&quot;width: 100%; height: 100%; border-collapse: collapse; font-size: 15px;&quot;&gt;&lt;tbody&gt;&lt;tr&gt;&lt;th align=&quot;center&quot;&gt;&lt;b&gt;&lt;font color=&quot;#000000&quot; style=&quot;font-size: 15px;&quot;&gt;Student&lt;/font&gt;&lt;/b&gt;&lt;/th&gt;&lt;/tr&gt;&lt;tr&gt;&lt;td&gt;&lt;font color=&quot;#000000&quot; style=&quot;&quot;&gt;&lt;span style=&quot;font-size: 15px;&quot;&gt;fullName&lt;/span&gt;&lt;br&gt;&lt;span style=&quot;font-size: 15px;&quot;&gt;pic&lt;/span&gt;&lt;br&gt;&lt;span style=&quot;font-size: 15px;&quot;&gt;email&lt;/span&gt;&lt;br&gt;&lt;span style=&quot;font-size: 15px;&quot;&gt;phone&lt;/span&gt;&lt;br&gt;&lt;span style=&quot;font-size: 15px;&quot;&gt;anotherPhone&lt;/span&gt;&lt;br&gt;&lt;span style=&quot;font-size: 15px;&quot;&gt;acadmicYaer&lt;/span&gt;&lt;br&gt;&lt;span style=&quot;font-size: 15px;&quot;&gt;schoolName&lt;/span&gt;&lt;br&gt;&lt;span style=&quot;font-size: 15px;&quot;&gt;governorate&lt;/span&gt;&lt;br&gt;&lt;span style=&quot;font-size: 15px;&quot;&gt;city&lt;/span&gt;&lt;br&gt;&lt;span style=&quot;font-size: 15px;&quot;&gt;password&lt;/span&gt;&lt;br&gt;&lt;span style=&quot;font-size: 15px;&quot;&gt;coursesId&lt;/span&gt;&lt;br&gt;&lt;span style=&quot;font-size: 15px;&quot;&gt;numOfSo&lt;/span&gt;&lt;/font&gt;&lt;font color=&quot;#000000&quot; style=&quot;font-size: 15px;&quot;&gt;lvedQ&lt;/font&gt;&lt;font color=&quot;#000000&quot; style=&quot;font-size: 15px;&quot;&gt;&lt;br&gt;idOfCorrectQ&lt;br&gt;idOfWrongQ&lt;br&gt;idOfQiuzzs&lt;br&gt;&lt;br&gt;&lt;/font&gt;&lt;/td&gt;&lt;/tr&gt;&lt;tr&gt;&lt;td align=&quot;center&quot;&gt;&lt;font color=&quot;#000000&quot; style=&quot;font-size: 15px;&quot;&gt;Section 2.1&lt;br&gt;Section 2.2&lt;br&gt;Section 2.3&lt;/font&gt;&lt;/td&gt;&lt;/tr&gt;&lt;/tbody&gt;&lt;/table&gt;" style="text;html=1;whiteSpace=wrap;strokeColor=#006EAF;fillColor=#1ba1e2;overflow=fill;fontColor=#ffffff;" parent="1" vertex="1">
                    <mxGeometry x="-290" y="60" width="200" height="420" as="geometry"/>
                </mxCell>
                <mxCell id="5" value="&lt;table border=&quot;1&quot; width=&quot;100%&quot; height=&quot;100%&quot; cellpadding=&quot;4&quot; style=&quot;width:100%;height:100%;border-collapse:collapse;&quot;&gt;&lt;tbody&gt;&lt;tr&gt;&lt;th align=&quot;center&quot;&gt;&lt;b&gt;Question&lt;/b&gt;&lt;/th&gt;&lt;/tr&gt;&lt;tr&gt;&lt;td&gt;ID&lt;br&gt;questionText:(String)&lt;br&gt;questionImg:(String(url))&lt;br&gt;type([MCQ,MCQwithMAnswers])&lt;br&gt;asnwers:(ArrayOFanswers)&lt;br&gt;correctAns:(idx)&lt;br&gt;role:([practice,Quizz])&lt;/td&gt;&lt;/tr&gt;&lt;tr&gt;&lt;td align=&quot;center&quot;&gt;Section 2.1&lt;br&gt;Section 2.2&lt;br&gt;Section 2.3&lt;/td&gt;&lt;/tr&gt;&lt;/tbody&gt;&lt;/table&gt;" style="text;html=1;whiteSpace=wrap;strokeColor=#6F0000;fillColor=#a20025;overflow=fill;fontColor=#ffffff;" vertex="1" parent="1">
                    <mxGeometry x="610" y="100" width="195" height="360" as="geometry"/>
                </mxCell>
                <mxCell id="6" value="&lt;table border=&quot;1&quot; width=&quot;100%&quot; height=&quot;100%&quot; cellpadding=&quot;4&quot; style=&quot;width: 100%; height: 100%; border-collapse: collapse; font-size: 16px;&quot;&gt;&lt;tbody&gt;&lt;tr&gt;&lt;th align=&quot;center&quot;&gt;&lt;b&gt;Title&lt;/b&gt;&lt;/th&gt;&lt;/tr&gt;&lt;tr&gt;&lt;td&gt;id : string&amp;nbsp;&lt;br&gt;title : string&amp;nbsp;&lt;br&gt;description:string&lt;br&gt;price:string&lt;br&gt;image:string&amp;nbsp;&lt;br&gt;numberOfstudents:number&lt;br&gt;groupsId:string&lt;br&gt;studentsId:string&lt;br&gt;&lt;br&gt;&lt;/td&gt;&lt;/tr&gt;&lt;tr&gt;&lt;td align=&quot;center&quot;&gt;Section 2.1&lt;br&gt;Section 2.2&lt;br&gt;Section 2.3&lt;/td&gt;&lt;/tr&gt;&lt;/tbody&gt;&lt;/table&gt;" style="text;html=1;whiteSpace=wrap;strokeColor=#C73500;fillColor=#fa6800;overflow=fill;fontSize=15;fontColor=#000000;" vertex="1" parent="1">
                    <mxGeometry x="60" y="110" width="250" height="310" as="geometry"/>
                </mxCell>
            </root>
        </mxGraphModel>
    </diagram>
</mxfile>